<?xml version="1.0" encoding="UTF-8"?><svg id="a" xmlns="http://www.w3.org/2000/svg" width="471.58" height="246.56" viewBox="0 0 471.58 246.56"><path d="M348.02,0c-41.23.09-76.26,22.68-112.05,49.23C199.81,22.63,164.49-.09,122.99,0,55.02.16-.16,55.59,0,123.56c.16,67.98,55.58,123.15,123.56,123,41.23-.09,76.26-22.68,112.05-49.23,36.16,26.61,71.48,49.33,112.98,49.23,67.97-.16,123.15-55.59,122.99-123.56C471.42,55.02,415.99-.16,348.02,0ZM348.51,211.6c-27.93.06-55.34-16.01-83.64-36.24,18.25-13.58,37.1-26.82,56.97-36.95l30.74-15.66-30.81-15.52c-1.67-.84-3.32-1.7-4.98-2.59-21.83,5.92-71.16,41.38-86.9,53.27-36.5,27.57-70.99,53.61-106.41,53.69-48.7.11-88.41-39.42-88.52-88.12-.11-48.7,39.42-88.41,88.12-88.52,27.93-.06,55.34,16.01,83.64,36.24-18.25,13.58-37.1,26.82-56.97,36.95l-30.74,15.66,30.81,15.52c1.67.84,3.32,1.7,4.98,2.59,21.83-5.92,71.16-41.38,86.9-53.27,36.5-27.57,70.99-53.61,106.41-53.69,48.7-.11,88.41,39.42,88.52,88.12.11,48.7-39.42,88.41-88.12,88.52Z"/></svg>
