<svg width="856" height="140" viewBox="0 0 856 140" fill="none" xmlns="http://www.w3.org/2000/svg">
<path d="M184.497 10.0002C162.639 10.0476 144.069 21.9583 125.095 35.9569C105.926 21.9319 87.2016 9.95273 65.2011 10.0002C29.168 10.0845 -0.0846371 39.3102 0.000183995 75.1476C0.0850051 110.99 29.4649 140.079 65.5033 140C87.3606 139.952 105.931 128.042 124.905 114.043C144.074 128.073 162.798 140.053 184.799 140C220.832 139.915 250.085 110.69 250 74.8524C249.915 39.0097 220.53 9.91582 184.497 10.0002ZM184.756 121.567C169.95 121.599 155.419 113.126 140.416 102.459C150.091 95.2993 160.084 88.3184 170.618 82.9774L186.914 74.7206L170.581 66.5376C169.695 66.0947 168.821 65.6413 167.941 65.172C156.368 68.2933 130.217 86.9898 121.872 93.2588C102.522 107.795 84.2382 121.525 65.4609 121.567C39.6435 121.625 18.5919 100.783 18.5336 75.1055C18.4753 49.4282 39.4314 28.491 65.2488 28.433C80.0554 28.4013 94.5863 36.8743 109.589 47.5406C99.9142 54.7007 89.9212 61.6816 79.3875 67.0227L63.0912 75.2795L79.4246 83.4624C80.3099 83.9053 81.1846 84.3588 82.0646 84.828C93.6374 81.7067 119.789 63.0103 128.133 56.7412C147.483 42.2048 165.767 28.4751 184.544 28.433C210.362 28.375 231.413 49.2173 231.472 74.8946C231.53 100.572 210.574 121.509 184.756 121.567Z" fill="#0A0A0A"/>
<path d="M312.548 125.55C304.984 125.55 298.102 124.062 291.902 121.086C285.826 117.986 280.99 113.274 277.394 106.95C273.798 100.626 272 92.566 272 82.77C272 73.594 273.86 65.658 277.58 58.962C281.3 52.266 286.198 47.12 292.274 43.524C298.35 39.804 304.798 37.944 311.618 37.944C319.678 37.944 325.754 39.308 329.846 42.036C334.062 44.64 337.534 47.554 340.262 50.778L339.146 53.94L341.564 42.036H365.744V123.318H339.704V105.648L341.75 111.228C341.502 111.228 340.758 111.972 339.518 113.46C338.278 114.824 336.418 116.498 333.938 118.482C331.582 120.342 328.606 121.954 325.01 123.318C321.538 124.806 317.384 125.55 312.548 125.55ZM319.988 104.346C323.088 104.346 325.878 103.912 328.358 103.044C330.838 102.052 333.008 100.688 334.868 98.952C336.728 97.092 338.34 94.798 339.704 92.07V72.168C338.712 69.44 337.224 67.146 335.24 65.286C333.256 63.302 330.9 61.814 328.172 60.822C325.444 59.706 322.406 59.148 319.058 59.148C315.338 59.148 311.866 60.14 308.642 62.124C305.542 63.984 303.062 66.588 301.202 69.936C299.342 73.284 298.412 77.128 298.412 81.468C298.412 85.808 299.404 89.714 301.388 93.186C303.372 96.658 305.976 99.386 309.2 101.37C312.548 103.354 316.144 104.346 319.988 104.346Z" fill="#0A0A0A"/>
<path d="M400.202 6.32401H426.242V41.664H445.958V61.938H426.242V123.318H400.202V61.938H387.554V41.664H400.202V6.32401Z" fill="#0A0A0A"/>
<path d="M459.453 81.654C459.453 73.346 461.375 65.906 465.219 59.334C469.187 52.762 474.705 47.616 481.773 43.896C488.841 40.052 496.963 38.13 506.139 38.13C515.439 38.13 523.499 40.052 530.319 43.896C537.139 47.616 542.347 52.762 545.943 59.334C549.663 65.906 551.523 73.346 551.523 81.654C551.523 89.962 549.663 97.464 545.943 104.16C542.347 110.732 537.139 115.94 530.319 119.784C523.499 123.628 515.315 125.55 505.767 125.55C496.839 125.55 488.841 123.814 481.773 120.342C474.829 116.87 469.373 111.848 465.405 105.276C461.437 98.704 459.453 90.83 459.453 81.654ZM485.679 81.84C485.679 86.056 486.547 89.9 488.283 93.372C490.019 96.72 492.375 99.386 495.351 101.37C498.327 103.354 501.675 104.346 505.395 104.346C509.487 104.346 513.021 103.354 515.997 101.37C518.973 99.386 521.267 96.72 522.879 93.372C524.491 89.9 525.297 86.056 525.297 81.84C525.297 77.5 524.491 73.656 522.879 70.308C521.267 66.96 518.973 64.294 515.997 62.31C513.021 60.326 509.487 59.334 505.395 59.334C501.675 59.334 498.327 60.326 495.351 62.31C492.375 64.294 490.019 66.96 488.283 70.308C486.547 73.656 485.679 77.5 485.679 81.84Z" fill="#0A0A0A"/>
<path d="M595.659 42.036L597.705 56.358L597.333 55.242C600.557 49.786 604.587 45.57 609.423 42.594C614.259 39.494 620.087 37.944 626.907 37.944C631.371 37.944 635.277 38.564 638.625 39.804C642.097 41.044 645.011 42.904 647.367 45.384C649.723 47.74 651.335 50.84 652.203 54.684L651.273 54.87C654.745 49.786 658.899 45.694 663.735 42.594C668.695 39.494 673.841 37.944 679.173 37.944C687.233 37.944 693.619 40.238 698.331 44.826C703.167 49.29 705.647 55.118 705.771 62.31V123.318H679.917V73.098C679.793 69.502 679.235 66.588 678.243 64.356C677.251 62 674.957 60.698 671.361 60.45C667.145 60.45 663.549 61.938 660.573 64.914C657.721 67.766 655.551 71.486 654.063 76.074C652.699 80.538 652.017 85.188 652.017 90.024V123.318H625.977V73.098C625.853 69.502 625.171 66.588 623.931 64.356C622.815 62 620.459 60.698 616.863 60.45C612.771 60.45 609.299 61.938 606.447 64.914C603.719 67.766 601.611 71.424 600.123 75.888C598.759 80.352 598.077 84.94 598.077 89.652V123.318H572.037V42.036H595.659Z" fill="#0A0A0A"/>
<path d="M732.607 42.036H758.647V123.318H732.607V42.036ZM732.049 13.206C732.049 9.362 733.537 6.20001 736.513 3.72001C739.613 1.24 742.899 0 746.371 0C749.843 0 753.005 1.24 755.857 3.72001C758.833 6.20001 760.321 9.362 760.321 13.206C760.321 17.05 758.833 20.212 755.857 22.692C753.005 25.048 749.843 26.226 746.371 26.226C742.899 26.226 739.613 25.048 736.513 22.692C733.537 20.212 732.049 17.05 732.049 13.206Z" fill="#0A0A0A"/>
<path d="M854.471 116.064C850.875 118.916 846.349 121.21 840.893 122.946C835.561 124.682 830.291 125.55 825.083 125.55C815.783 125.55 807.661 123.876 800.717 120.528C793.897 117.056 788.565 112.158 784.721 105.834C781.001 99.386 779.141 91.636 779.141 82.584C779.141 73.532 781.187 65.844 785.279 59.52C789.371 53.072 794.703 48.174 801.275 44.826C807.971 41.478 814.977 39.804 822.293 39.804C829.609 39.804 835.933 40.796 841.265 42.78C846.721 44.764 851.371 47.368 855.215 50.592L842.567 67.332C840.831 65.968 838.413 64.604 835.313 63.24C832.337 61.752 828.803 61.008 824.711 61.008C821.115 61.008 817.829 61.938 814.853 63.798C811.877 65.658 809.521 68.2 807.785 71.424C806.049 74.648 805.181 78.368 805.181 82.584C805.181 86.552 806.111 90.21 807.971 93.558C809.831 96.906 812.373 99.572 815.597 101.556C818.945 103.416 822.851 104.346 827.315 104.346C830.167 104.346 832.771 103.974 835.127 103.23C837.607 102.362 839.715 101.184 841.451 99.696L854.471 116.064Z" fill="#0A0A0A"/>
</svg>
